<svg width="932" height="661" viewBox="0 0 932 661" fill="none" xmlns="http://www.w3.org/2000/svg">
<g clip-path="url(#clip0_1_20)">
<path d="M62.8178 501.81H12.4138C11.9839 501.806 11.5707 501.669 11.2511 501.425C10.9316 501.182 10.7275 500.848 10.677 500.486C9.78955 492.231 11.1452 483.914 14.6401 476.172C18.135 468.43 23.6762 461.468 30.839 455.821C38.0018 450.174 46.596 445.991 55.9627 443.593C65.3294 441.195 75.22 440.646 84.8761 441.987C83.122 436.251 83.2963 430.213 85.3793 424.556C87.4622 418.899 91.3709 413.847 96.6639 409.973C101.957 406.098 108.423 403.554 115.333 402.629C122.243 401.703 129.32 402.432 135.766 404.734C135.568 378.109 143.758 351.922 159.492 328.873C171.997 310.57 194.507 292.238 220.178 295.622C234.664 297.534 246.752 306.156 256.479 313.071C256.655 313.194 256.8 313.344 256.906 313.515C257.013 313.685 257.077 313.872 257.097 314.064C257.116 314.256 257.09 314.449 257.02 314.633C256.949 314.816 256.836 314.986 256.687 315.131C256.385 315.428 255.957 315.612 255.497 315.645C255.036 315.678 254.578 315.557 254.221 315.308C244.842 308.628 233.17 300.33 219.484 298.535C195.549 295.357 174.325 312.895 162.34 330.345C146.437 353.616 138.397 380.146 139.101 407.029C139.105 407.283 139.031 407.534 138.886 407.756C138.741 407.979 138.531 408.166 138.276 408.299C138.02 408.433 137.729 408.508 137.429 408.517C137.129 408.527 136.832 408.47 136.565 408.353C130.52 405.733 123.689 404.702 116.948 405.393C110.207 406.084 103.864 408.466 98.7312 412.232C93.5987 415.998 89.9113 420.977 88.1421 426.53C86.3728 432.083 86.6024 437.958 88.8014 443.4C88.901 443.649 88.9213 443.917 88.8603 444.175C88.7994 444.433 88.6592 444.673 88.454 444.871C88.2469 445.063 87.9835 445.205 87.6906 445.282C87.3977 445.36 87.0858 445.37 86.7866 445.312C77.6376 443.673 68.1646 443.85 59.1103 445.832C50.056 447.813 41.6666 451.544 34.5997 456.732C27.5329 461.92 21.9808 468.425 18.3787 475.735C14.7766 483.046 13.2224 490.963 13.8381 498.868H62.8178C63.2785 498.868 63.7202 499.023 64.046 499.299C64.3717 499.575 64.5547 499.949 64.5547 500.339C64.5547 500.729 64.3717 501.104 64.046 501.38C63.7202 501.655 63.2785 501.81 62.8178 501.81Z" fill="#D1D3D4"/>
<path d="M125.6 254.299L125.6 254.299L125.604 254.299C151.24 258.878 174.451 270.304 191.827 286.884C192.034 287.097 192.29 287.262 192.572 287.372C192.854 287.482 193.159 287.535 193.465 287.529C193.994 287.54 194.52 287.386 194.94 287.081L194.958 287.068L194.975 287.053C195.393 286.688 195.646 286.18 195.646 285.632C195.646 285.087 195.397 284.583 194.984 284.218C176.961 267.003 152.893 255.163 126.338 250.432C117.17 248.732 107.738 248.313 98.4114 249.19L98.4114 249.19L98.4035 249.191C97.8347 249.253 97.3 249.506 96.9262 249.918L97.2962 250.254L96.9262 249.918C96.5492 250.332 96.3684 250.876 96.4529 251.426C96.5369 251.974 96.8702 252.445 97.3423 252.753C97.5763 252.906 97.8397 253.016 98.1166 253.079L98.2279 252.591L98.1166 253.079C98.3925 253.142 98.6792 253.158 98.9613 253.128C107.856 252.257 116.86 252.653 125.6 254.299Z" fill="#EAA4DF" stroke="#EAA4DF"/>
<path d="M111.763 280.909C106.866 280.891 101.982 280.487 97.1731 279.702C79.8044 276.76 64.2768 269.815 49.166 263.018C48.0177 262.593 47.0572 261.872 46.4217 260.958C45.3449 259.104 46.4218 256.985 49.305 255.073C62.3315 246.627 79.8044 236.593 99.6395 233.739C117.008 231.237 139.587 235.122 151.329 249.423C151.46 249.583 151.553 249.763 151.602 249.954C151.65 250.144 151.653 250.341 151.611 250.533C151.569 250.724 151.483 250.907 151.357 251.07C151.231 251.233 151.068 251.373 150.877 251.483C150.691 251.593 150.481 251.671 150.259 251.712C150.036 251.753 149.807 251.756 149.583 251.72C149.36 251.684 149.147 251.611 148.958 251.505C148.768 251.398 148.606 251.261 148.48 251.1C137.607 237.858 116.418 234.298 100.195 236.622C81.2634 239.359 64.902 248.658 51.5629 257.397C50.2428 258.251 49.4786 259.192 49.7218 259.604C49.965 260.016 50.5208 260.163 50.9723 260.369C65.84 267.049 81.2286 273.994 98.0068 276.73C116.487 279.673 133.786 276.73 145.423 268.579C145.779 268.379 146.208 268.297 146.631 268.348C147.053 268.399 147.438 268.58 147.713 268.857C147.988 269.133 148.133 269.486 148.121 269.847C148.108 270.208 147.94 270.553 147.647 270.816C137.471 277.669 124.757 281.246 111.763 280.909Z" fill="#EAA4DF"/>
<path d="M861.57 660.564H2.5484L96.1657 507.99H767.952L861.57 660.564Z" fill="white"/>
<path d="M861.57 662.036H2.54843C2.24867 662.037 1.95356 661.973 1.69181 661.849C1.43006 661.725 1.21059 661.546 1.05472 661.329C0.908643 661.109 0.831909 660.861 0.831909 660.608C0.831909 660.356 0.908643 660.108 1.05472 659.887L94.8457 507.284C94.9997 507.046 95.2256 506.847 95.5003 506.707C95.775 506.568 96.0886 506.492 96.4089 506.489H767.953C768.269 506.488 768.58 506.562 768.85 506.702C769.12 506.842 769.339 507.044 769.481 507.284L863.098 659.887C863.246 660.11 863.321 660.361 863.317 660.616C863.312 660.871 863.228 661.12 863.072 661.339C862.917 661.557 862.696 661.736 862.432 661.859C862.168 661.981 861.871 662.042 861.57 662.036ZM5.39689 659.093H858.721L767.084 509.373H97.2079L5.39689 659.093Z" fill="#D1D3D4"/>
<path d="M98.0416 662.036C97.8228 662.063 97.6004 662.063 97.3816 662.036C97.1694 661.965 96.9763 661.858 96.8136 661.723C96.6509 661.588 96.522 661.426 96.4345 661.247C96.347 661.069 96.3027 660.878 96.3043 660.684C96.3059 660.491 96.3533 660.3 96.4437 660.123L169.392 507.548C169.477 507.369 169.602 507.205 169.761 507.066C169.92 506.928 170.11 506.817 170.32 506.74C170.529 506.664 170.755 506.623 170.983 506.62C171.211 506.618 171.438 506.653 171.65 506.725C171.862 506.796 172.056 506.902 172.219 507.037C172.383 507.172 172.514 507.333 172.604 507.51C172.694 507.688 172.743 507.879 172.746 508.072C172.749 508.265 172.707 508.458 172.623 508.637L99.6743 661.212C99.5297 661.471 99.2971 661.688 99.0063 661.835C98.7155 661.981 98.3796 662.051 98.0416 662.036Z" fill="#D1D3D4"/>
<path d="M193.465 662.035H192.979C192.542 661.92 192.175 661.665 191.954 661.325C191.734 660.985 191.678 660.586 191.798 660.211L243.904 507.637C243.945 507.438 244.033 507.248 244.163 507.079C244.293 506.91 244.462 506.764 244.66 506.652C244.858 506.539 245.081 506.461 245.315 506.423C245.549 506.385 245.79 506.388 246.023 506.43C246.46 506.546 246.827 506.801 247.047 507.141C247.267 507.481 247.323 507.88 247.204 508.255L195.098 660.858C195.02 661.181 194.817 661.472 194.521 661.686C194.225 661.899 193.853 662.022 193.465 662.035Z" fill="#D1D3D4"/>
<path d="M288.889 662.035H288.611C288.158 661.964 287.756 661.745 287.49 661.427C287.225 661.108 287.116 660.714 287.187 660.329L318.45 507.754C318.489 507.561 318.573 507.376 318.696 507.21C318.819 507.045 318.979 506.901 319.168 506.787C319.357 506.674 319.57 506.593 319.795 506.55C320.021 506.506 320.254 506.5 320.483 506.533C320.711 506.566 320.929 506.637 321.125 506.741C321.321 506.845 321.49 506.981 321.624 507.141C321.758 507.301 321.853 507.482 321.905 507.673C321.956 507.864 321.963 508.061 321.924 508.255L290.661 660.829C290.579 661.174 290.357 661.484 290.033 661.705C289.709 661.925 289.304 662.042 288.889 662.035Z" fill="#D1D3D4"/>
<path d="M384.347 662.036C384.119 662.024 383.896 661.975 383.69 661.89C383.484 661.806 383.3 661.688 383.149 661.543C382.997 661.398 382.88 661.229 382.806 661.046C382.731 660.863 382.7 660.669 382.714 660.476L393.136 507.902C393.149 507.708 393.207 507.519 393.307 507.345C393.407 507.171 393.546 507.015 393.717 506.886C393.888 506.758 394.088 506.659 394.304 506.596C394.52 506.533 394.749 506.507 394.977 506.519C395.203 506.526 395.426 506.572 395.632 506.653C395.837 506.735 396.021 506.85 396.173 506.993C396.325 507.135 396.442 507.302 396.517 507.483C396.592 507.665 396.623 507.857 396.609 508.049L386.188 660.652C386.153 661.04 385.941 661.401 385.597 661.659C385.254 661.917 384.806 662.052 384.347 662.036Z" fill="#D1D3D4"/>
<path d="M479.771 662.035C479.33 662.029 478.908 661.884 478.587 661.628C478.266 661.373 478.068 661.025 478.034 660.652L467.613 508.049C467.599 507.857 467.63 507.665 467.705 507.483C467.78 507.302 467.897 507.135 468.049 506.992C468.201 506.85 468.385 506.735 468.591 506.653C468.796 506.572 469.019 506.526 469.245 506.519C469.688 506.526 470.111 506.676 470.427 506.939C470.744 507.201 470.93 507.556 470.947 507.931L481.369 660.505C481.38 660.892 481.217 661.268 480.914 661.557C480.611 661.846 480.19 662.028 479.736 662.065L479.771 662.035Z" fill="#D1D3D4"/>
<path d="M575.195 662.036C574.782 662.039 574.383 661.916 574.07 661.689C573.756 661.461 573.551 661.145 573.493 660.8L542.229 508.225C542.19 508.032 542.197 507.834 542.248 507.643C542.3 507.452 542.395 507.272 542.529 507.112C542.663 506.952 542.832 506.816 543.028 506.712C543.224 506.607 543.442 506.537 543.67 506.504C543.899 506.471 544.132 506.477 544.358 506.52C544.583 506.564 544.796 506.645 544.985 506.758C545.174 506.871 545.334 507.015 545.457 507.181C545.581 507.347 545.664 507.532 545.703 507.725L576.966 660.299C577.048 660.682 576.947 661.076 576.687 661.395C576.426 661.715 576.027 661.935 575.577 662.006L575.195 662.036Z" fill="#D1D3D4"/>
<path d="M670.618 662.036C670.245 662.027 669.885 661.92 669.586 661.73C669.288 661.541 669.066 661.277 668.951 660.976L616.845 508.372C616.716 507.998 616.768 507.595 616.989 507.253C617.211 506.911 617.584 506.657 618.026 506.548C618.473 506.448 618.948 506.5 619.35 506.692C619.752 506.884 620.05 507.202 620.18 507.578L672.286 660.152C672.35 660.338 672.37 660.532 672.345 660.724C672.32 660.916 672.251 661.102 672.141 661.272C672.032 661.441 671.884 661.591 671.706 661.712C671.528 661.833 671.324 661.923 671.105 661.977L670.618 662.036Z" fill="#D1D3D4"/>
<path d="M764.479 658.71C764.137 658.705 763.804 658.616 763.521 658.454C763.237 658.292 763.015 658.064 762.881 657.798L690.662 506.43C690.491 506.067 690.498 505.662 690.681 505.303C690.863 504.944 691.206 504.662 691.634 504.517C692.063 504.373 692.541 504.379 692.965 504.533C693.388 504.688 693.722 504.979 693.892 505.341L766.077 656.621C766.161 656.801 766.203 656.993 766.2 657.186C766.197 657.38 766.149 657.571 766.059 657.748C765.968 657.926 765.837 658.087 765.674 658.221C765.51 658.356 765.316 658.462 765.104 658.534C764.915 658.633 764.701 658.694 764.479 658.71Z" fill="#D1D3D4"/>
<path d="M502.246 99.9971C501.933 90.8162 500.787 81.2527 494.951 73.5136C486.267 61.9492 469.523 57.1527 454.065 53.1508C436.696 48.5897 417.452 44.0581 400.187 49.3548C394.588 51.1922 389.352 53.7424 384.66 56.9173C375.411 62.4511 368.188 70.079 363.817 78.928C361.687 83.3485 360.858 88.1418 361.403 92.8942C361.947 97.6465 363.849 102.215 366.944 106.206C380.352 121.949 412.415 120.595 423.184 137.721C426.657 143.342 427.317 150.227 431.868 155.377C434.948 158.5 438.867 160.952 443.296 162.528C452.432 166.206 463.201 168.413 472.684 165.294C503.08 155.671 503.079 122.214 502.246 99.9971Z" fill="#231F20"/>
<path d="M462.958 168.03C455.903 167.866 448.977 166.39 442.671 163.705C438.008 162.061 433.867 159.51 430.583 156.26C428.055 153.083 426.198 149.558 425.094 145.843C424.201 143.298 423.038 140.826 421.62 138.457C416.271 129.982 405.363 126.275 393.831 122.361C383.166 118.742 372.154 114.975 365.485 107.118C362.218 102.939 360.195 98.151 359.59 93.1645C358.985 88.178 359.816 83.1417 362.011 78.4867C366.461 69.376 373.854 61.5126 383.34 55.7992C388.173 52.5489 393.561 49.9395 399.319 48.0601C417.834 42.3515 438.92 47.7953 454.308 51.7972C471.364 56.2111 487.413 61.1547 495.993 72.778C502.142 80.9585 503.253 91.1693 503.566 100.056C504.191 119.772 505.338 156.495 472.962 166.647C469.746 167.591 466.362 168.059 462.958 168.03ZM417.278 48.3838C411.659 48.3293 406.074 49.1163 400.778 50.7085C395.352 52.5052 390.271 54.9745 385.702 58.0356C376.74 63.4148 369.755 70.831 365.554 79.4283C363.521 83.6207 362.724 88.1696 363.232 92.6816C363.74 97.1935 365.539 101.533 368.472 105.323C374.551 112.503 384.972 116.064 395.394 119.536C406.996 123.479 418.98 127.569 424.92 136.986C426.371 139.526 427.534 142.176 428.394 144.901C429.384 148.29 431.065 151.507 433.362 154.406C436.243 157.36 439.943 159.665 444.13 161.115C451.46 164.058 462.263 167 472.198 163.822C502.246 154.377 501.1 119.036 500.509 100.056C500.231 91.5519 499.189 81.8413 493.562 74.2788C485.468 63.4794 470.044 58.7712 453.614 54.5044C441.918 50.9772 429.677 48.9153 417.278 48.3838Z" fill="#231F20"/>
<path d="M344.156 468.529L340.37 480.3C340.37 480.3 176.062 467.499 161.368 489.54C146.674 511.58 222.054 583.703 373.648 588.617C525.242 593.531 727.657 545.596 739.294 502.517C750.931 459.437 546.641 475.15 546.641 475.15L542.715 460.261C542.715 460.261 370.591 471.119 344.156 468.529Z" fill="#EAA4DF"/>
<path d="M396.089 590.501C388.493 590.501 380.989 590.383 373.579 590.148C321.056 588.412 272.146 578.377 232.093 560.928C200.031 547.009 175.089 529.059 163.661 511.698C157.547 502.458 156.227 494.366 159.874 488.863C174.325 467.146 321.716 477.504 339.085 478.799L342.558 468.147C342.671 467.81 342.922 467.519 343.266 467.324C343.61 467.13 344.024 467.046 344.434 467.088C370.383 469.53 541.048 458.907 542.75 458.789C543.17 458.753 543.592 458.85 543.932 459.063C544.272 459.275 544.507 459.586 544.591 459.937L548.065 473.591C565.434 472.325 709.802 462.674 737.002 489.098C738.99 490.914 740.404 493.125 741.115 495.528C741.825 497.93 741.808 500.445 741.066 502.84C729.637 544.861 545.564 590.501 396.089 590.501ZM247.621 478.181C206.943 478.181 169.114 480.918 162.896 490.305C159.84 494.866 161.194 502.075 166.683 510.285C185.649 539.093 256.479 583.35 373.718 587.205C522.081 592.09 726.233 544.39 737.731 502.164C738.346 500.225 738.366 498.185 737.789 496.238C737.211 494.292 736.055 492.502 734.431 491.04C707.232 464.557 548.482 476.504 546.849 476.622C546.429 476.658 546.008 476.561 545.667 476.349C545.327 476.136 545.092 475.825 545.008 475.474L541.534 461.791C523.818 462.909 374.795 472.031 345.511 470.118L342.037 480.741C341.933 481.073 341.696 481.363 341.366 481.562C341.036 481.76 340.635 481.855 340.231 481.83C319.284 480.182 282.428 478.181 247.621 478.181Z" fill="#231F20"/>
<path d="M161.368 489.599C165.571 483.301 198.537 475.827 254.29 489.599C310.044 503.37 488.907 571.491 500.926 576.229C512.945 580.967 562.133 588.823 558.66 601.094C555.186 613.365 449.271 590.736 440.309 587.028C431.347 583.321 323.522 599.74 229.071 569.608C145.006 542.772 151.676 504.076 161.368 489.599Z" fill="white"/>
<path d="M544.765 606.214C514.3 606.214 447.5 591.501 439.615 588.323C437.704 587.558 427.561 587.97 415.82 588.323C377.921 589.971 298.998 593.326 228.515 570.844C189.471 558.397 165.467 542.183 157.095 522.615C154.683 517.132 153.683 511.277 154.162 505.44C154.641 499.603 156.589 493.921 159.874 488.775C164.529 481.801 198.085 474.062 254.777 488.098C311.468 502.134 490.574 570.491 501.412 574.817C506.501 576.556 511.709 578.03 517.01 579.231C537.539 584.41 563.141 591.001 560.397 601.329C560.159 602.066 559.721 602.745 559.118 603.312C558.515 603.88 557.763 604.319 556.923 604.596C553.042 605.828 548.905 606.379 544.765 606.214ZM433.605 584.969C436.116 584.797 438.642 585.047 441.039 585.704C449.897 589.353 539.971 608.333 555.36 602.036C556.298 601.683 556.819 601.241 556.923 600.77C558.972 593.002 532.016 586.204 515.933 582.144C510.467 580.902 505.096 579.379 499.849 577.583C488.942 573.198 309.975 504.9 253.631 491.011C198.537 477.416 166.266 485.126 162.723 490.305C159.675 495.092 157.878 500.379 157.452 505.806C157.027 511.233 157.983 516.674 160.256 521.761C168.142 540.212 192.145 556.278 229.731 568.225C299.553 590.501 377.956 587.146 415.646 585.557C423.844 585.204 429.68 584.969 433.779 584.969H433.605Z" fill="#231F20"/>
<path d="M279.718 287.088L248.767 385.96L198.78 336.141C198.78 336.141 190.165 323.988 184.676 322.252C178.146 320.192 159.11 316.514 149.939 310.276C140.768 304.038 128.124 304.95 127.29 309.805C126.213 316.279 145.701 323.812 150.599 327.049C144.867 329.109 136.461 328.285 130.417 327.372C128.102 327.155 125.902 326.402 124.06 325.195C118.953 321.281 126.526 315.19 125.171 310.658C124.802 309.613 124.161 308.651 123.296 307.842C122.43 307.033 121.363 306.398 120.171 305.983C118.979 305.569 117.693 305.385 116.407 305.445C115.12 305.506 113.866 305.809 112.735 306.333C108.428 308.775 107.733 313.778 105.788 317.809C101.48 326.46 90.5034 331.168 86.1612 339.731C81.298 349.354 90.5034 356.799 102.245 356.181C121.454 355.121 140.213 350.56 158.589 345.852C158.589 345.852 211.216 473.002 287.569 489.628C296.114 491.482 322.619 410.501 332.727 356.475C372.849 332.728 372.05 318.221 373.509 305.303C377.886 266.431 339.848 249.04 339.848 249.04C339.848 249.04 293.891 241.801 279.718 287.088Z" fill="white"/>
<path d="M287.708 491.07C287.465 491.088 287.221 491.088 286.978 491.07C254.846 484.066 223.166 457.554 192.805 412.267C179.075 391.488 167.252 369.845 157.442 347.529C138.893 352.238 120.69 356.504 102.314 357.475C99.1638 357.77 95.9767 357.385 93.0493 356.356C90.1219 355.327 87.5492 353.688 85.5706 351.59C84.1138 349.774 83.2473 347.664 83.0582 345.474C82.8692 343.284 83.3643 341.09 84.4938 339.114C87.0016 334.829 90.4296 330.977 94.6024 327.755C98.5392 324.767 101.769 321.172 104.12 317.162C104.641 316.132 105.058 315.014 105.51 313.895C106.334 310.424 108.557 307.304 111.797 305.068C113.093 304.357 114.573 303.924 116.11 303.807C117.648 303.689 119.195 303.889 120.621 304.391C122.96 305.134 124.915 306.55 126.144 308.393C126.562 307.644 127.157 306.975 127.892 306.429C128.627 305.882 129.486 305.469 130.417 305.215C134.004 304.353 137.788 304.263 141.427 304.951C145.066 305.64 148.445 307.085 151.259 309.158C157.824 313.689 170.365 316.926 178.632 319.074C181.411 319.781 183.739 320.369 185.336 320.869C191.207 322.753 199.231 334.082 200.274 335.376L247.933 382.841L278.051 286.706C285.554 262.694 301.985 253.307 314.421 249.658C322.562 247.238 331.265 246.492 339.814 247.481C339.986 247.455 340.162 247.455 340.335 247.481C340.717 247.657 379.31 265.784 374.864 305.185L374.655 307.392C373.335 320.104 371.876 334.464 334.013 357.063C324.633 407.294 300.213 484.39 289.618 490.305C289.091 490.722 288.423 490.989 287.708 491.07ZM158.45 344.322C158.816 344.322 159.172 344.419 159.471 344.598C159.769 344.777 159.995 345.03 160.117 345.322C160.638 346.588 213.265 471.855 287.847 488.127C295.107 486.185 320.396 412.149 330.747 356.181C330.832 355.789 331.094 355.441 331.477 355.21C368.611 333.199 370.035 319.457 371.251 307.363L371.494 305.097C375.524 269.285 342.141 251.924 338.98 250.394C334.881 249.805 294.481 245.391 281.316 287.471L250.4 386.313C250.313 386.574 250.145 386.811 249.912 386.997C249.68 387.184 249.392 387.313 249.08 387.372C248.772 387.439 248.449 387.43 248.148 387.347C247.846 387.264 247.579 387.109 247.377 386.902L197.39 337.083C193.917 332.375 187.629 324.783 184.051 323.635C182.488 323.135 180.23 322.576 177.555 321.87C169.01 319.663 156.088 316.338 149.001 311.424C146.66 309.689 143.853 308.466 140.826 307.86C137.798 307.255 134.642 307.286 131.632 307.951C130.59 308.304 129.34 308.922 129.166 310.011C128.506 313.925 139.379 319.398 145.84 322.694C147.896 323.675 149.89 324.745 151.815 325.901C152.059 326.054 152.251 326.259 152.371 326.496C152.49 326.733 152.532 326.992 152.493 327.247C152.454 327.502 152.335 327.744 152.149 327.947C151.962 328.15 151.715 328.308 151.433 328.402C146.639 330.109 139.726 330.256 130.278 328.814C127.633 328.574 125.125 327.696 123.052 326.284C119.162 323.341 120.933 319.427 122.323 316.279C123.325 314.67 123.782 312.857 123.643 311.041C123.341 310.147 122.793 309.326 122.045 308.646C121.296 307.965 120.367 307.445 119.335 307.127C118.424 306.806 117.434 306.672 116.45 306.739C115.465 306.805 114.513 307.07 113.673 307.51C111.131 309.416 109.408 311.983 108.775 314.808C108.289 316.014 107.837 317.191 107.281 318.309C104.785 322.676 101.331 326.601 97.1034 329.874C93.2215 332.826 90.0282 336.37 87.6896 340.32C86.7977 341.836 86.3954 343.524 86.5235 345.214C86.6516 346.905 87.3056 348.536 88.4191 349.942C90.0425 351.641 92.1428 352.967 94.5278 353.8C96.9128 354.633 99.5063 354.945 102.071 354.709C120.655 353.709 138.406 349.472 158.033 344.44L158.45 344.322ZM126.908 313.807C126.551 315.009 126.099 316.189 125.553 317.338C124.094 320.516 123.33 322.576 125.345 324.106C126.953 325.113 128.846 325.742 130.833 325.931C136.015 326.867 141.345 327.066 146.604 326.519C145.84 326.107 144.972 325.666 144.034 325.224C137.92 322.105 130.035 318.103 126.978 313.807H126.908Z" fill="#231F20"/>
<path d="M605.103 287.088L636.054 385.96L686.076 336.142C686.076 336.142 694.656 323.989 700.145 322.252C706.675 320.193 725.712 316.514 734.709 310.276C743.705 304.038 756.558 304.95 757.357 309.805C758.469 316.279 738.981 323.812 734.048 327.049C739.78 329.109 748.221 328.285 754.231 327.373C756.549 327.166 758.752 326.411 760.588 325.195C765.694 321.281 758.122 315.19 759.476 310.659C759.832 309.587 760.47 308.598 761.344 307.767C762.218 306.936 763.304 306.284 764.519 305.862C765.734 305.439 767.048 305.257 768.359 305.328C769.67 305.4 770.944 305.723 772.086 306.274C776.428 308.716 777.088 313.719 779.033 317.75C783.376 326.402 794.353 331.11 798.66 339.673C803.523 349.295 794.318 356.74 782.577 356.122C763.402 355.063 744.609 350.502 726.233 345.793C726.233 345.793 673.64 472.943 597.287 489.569C588.707 491.423 562.203 410.442 552.129 356.416C512.042 332.669 512.841 318.162 511.382 305.244C507.005 266.372 545.008 248.981 545.008 248.981C545.008 248.981 590.93 241.802 605.103 287.088Z" fill="white"/>
<path d="M597.044 491.07C596.334 491.049 595.647 490.855 595.064 490.511C584.643 484.626 560.049 407.5 550.705 357.27C512.806 334.67 511.347 320.281 510.062 307.598L509.819 305.391C505.407 265.99 543.965 247.863 544.382 247.687C544.543 247.658 544.708 247.658 544.869 247.687C545.355 247.687 592.389 240.801 606.805 286.853L636.888 382.841L684.756 335.171C685.486 334.082 693.649 322.753 699.52 320.869C701.152 320.369 703.48 319.781 706.224 319.074C714.526 316.926 727.066 313.69 733.597 309.158C736.412 307.088 739.792 305.644 743.43 304.955C747.068 304.267 750.852 304.356 754.439 305.215C755.363 305.474 756.215 305.889 756.943 306.436C757.671 306.982 758.261 307.648 758.677 308.393C759.924 306.563 761.874 305.151 764.201 304.391C765.632 303.889 767.185 303.689 768.728 303.806C770.271 303.924 771.757 304.357 773.059 305.068C776.295 307.307 778.516 310.426 779.346 313.896C779.763 315.014 780.215 316.132 780.736 317.162C783.076 321.17 786.295 324.765 790.219 327.755C794.402 330.969 797.832 334.822 800.328 339.114C801.473 341.085 801.979 343.279 801.796 345.471C801.613 347.663 800.747 349.775 799.285 351.59C797.305 353.686 794.732 355.323 791.805 356.352C788.878 357.381 785.692 357.767 782.542 357.476C764.131 356.504 745.929 352.238 727.379 347.529C717.565 369.848 705.73 391.492 691.982 412.267C661.621 457.554 629.906 484.067 597.774 491.07C597.531 491.088 597.287 491.088 597.044 491.07ZM545.772 250.423C542.645 251.954 509.263 269.315 513.292 305.126L513.501 307.392C514.751 319.486 516.141 333.228 553.31 355.239C553.496 355.354 553.653 355.499 553.772 355.666C553.892 355.832 553.97 356.017 554.005 356.21C564.426 412.12 589.645 486.215 597.148 488.157C671.486 471.943 724.148 346.617 724.67 345.352C724.82 344.993 725.126 344.695 725.526 344.52C725.927 344.345 726.39 344.306 726.823 344.41C746.415 349.442 764.166 353.68 782.75 354.68C785.321 354.927 787.924 354.619 790.316 353.785C792.709 352.952 794.815 351.62 796.437 349.913C797.545 348.504 798.193 346.871 798.315 345.181C798.437 343.491 798.029 341.804 797.132 340.291C794.802 336.335 791.608 332.791 787.718 329.844C783.485 326.591 780.019 322.687 777.505 318.339C776.949 317.221 776.498 316.044 776.046 314.837C775.398 312.017 773.678 309.454 771.148 307.539C770.302 307.099 769.344 306.835 768.354 306.768C767.364 306.702 766.369 306.835 765.451 307.157C764.426 307.478 763.504 308 762.762 308.68C762.019 309.36 761.477 310.179 761.178 311.071C761.025 312.884 761.47 314.697 762.464 316.308C763.888 319.457 765.625 323.341 761.769 326.313C759.689 327.715 757.185 328.592 754.544 328.844C745.06 330.286 738.148 330.139 733.389 328.432C733.109 328.338 732.864 328.182 732.681 327.98C732.497 327.778 732.382 327.537 732.346 327.284C732.296 327.032 732.328 326.773 732.438 326.534C732.548 326.296 732.732 326.087 732.972 325.931C734.292 325.077 736.445 323.989 738.947 322.723C745.442 319.428 756.315 313.895 755.655 310.041C755.655 308.952 754.196 308.334 753.154 307.981C750.143 307.326 746.99 307.3 743.965 307.905C740.94 308.51 738.133 309.727 735.785 311.453C728.838 316.367 715.742 319.692 707.197 321.899C704.522 322.606 702.264 323.165 700.735 323.665C697.262 324.813 690.731 332.493 687.535 336.907L637.34 386.931C637.138 387.139 636.871 387.293 636.569 387.376C636.268 387.46 635.945 387.469 635.638 387.402C635.33 387.341 635.047 387.21 634.821 387.024C634.594 386.837 634.432 386.601 634.352 386.343L603.401 287.5C590.27 245.421 549.906 249.835 545.772 250.423ZM738.148 326.549C743.407 327.096 748.736 326.897 753.918 325.96C755.914 325.766 757.817 325.138 759.442 324.136C761.456 322.606 760.657 320.546 759.233 317.368C758.677 316.219 758.213 315.039 757.844 313.837C754.787 318.133 746.901 322.135 740.718 325.254L738.148 326.549Z" fill="#231F20"/>
<path d="M381.151 240.418C381.151 240.418 341.342 242.361 332.519 247.334C332.519 247.334 354.056 312.071 327.656 359.153C327.656 359.153 343.184 441.163 344.156 468.5C344.156 468.5 452.467 497.514 542.819 460.231C544.487 473.414 541.291 375.514 552.303 356.387C552.303 356.387 546.085 273.258 558.799 246.186C558.66 246.215 429.784 233.533 381.151 240.418Z" fill="#2DBEA2"/>
<path d="M412.763 205.784L411.964 237.829C411.964 238.947 383.653 240.271 381.256 240.418C380.917 240.423 380.585 240.494 380.283 240.624C380.081 240.782 379.918 240.973 379.805 241.185C379.691 241.398 379.63 241.627 379.623 241.86C375.107 267.402 381.742 293.032 394.282 316.338C402.828 332.228 416.202 348.089 435.967 352.62C502.211 367.657 528.473 244.038 527.743 243.508C517.95 241.853 508.041 240.732 498.078 240.154C487.483 240.154 493.041 182.39 494.048 160.321C494.317 158.246 493.995 156.147 493.11 154.2C491.709 152.311 489.85 150.696 487.656 149.462C479.068 143.075 473.197 134.472 470.948 124.98C468.741 115.558 467.936 105.939 468.551 96.3482C468.551 100.232 436.453 107.265 432.111 108.119C419.01 110.959 405.548 112.432 392.024 112.503C382.819 112.503 383.166 112.503 381.603 120.419C380.526 126.628 379.449 132.837 378.616 139.104C376.787 151.55 376.45 164.12 377.608 176.623C377.857 182.955 380.113 189.115 384.139 194.455C390.704 201.841 402.029 204.636 412.763 205.784Z" fill="white"/>
<path d="M447.222 355.386C443.29 355.362 439.379 354.907 435.585 354.032C418.216 350.089 403.731 337.583 392.58 316.926C378.685 290.884 373.578 265.548 377.782 241.654C377.823 241.218 377.97 240.794 378.216 240.409C378.461 240.024 378.798 239.686 379.206 239.418C379.755 239.117 380.393 238.954 381.047 238.947H383.374C401.299 238.005 407.969 237.358 410.122 236.975L410.886 207.196C397.513 205.548 388.342 201.723 382.923 195.426C378.658 189.876 376.256 183.447 375.975 176.828C374.754 164.229 375.091 151.556 376.983 139.016C377.816 132.689 378.893 126.274 379.97 120.272V119.477C381.325 111.738 382.124 111.179 391.746 111.12C405.151 111.048 418.495 109.596 431.486 106.794C450.244 102.734 465.251 98.2019 466.605 96.201C466.657 95.8421 466.862 95.5118 467.182 95.273C467.503 95.0342 467.915 94.9036 468.342 94.9062C468.57 94.9101 468.795 94.9519 469.004 95.0294C469.213 95.1069 469.402 95.2185 469.56 95.3579C469.718 95.4972 469.842 95.6616 469.925 95.8416C470.009 96.0216 470.049 96.2137 470.044 96.407C469.421 105.87 470.215 115.362 472.406 124.656C474.635 133.765 480.276 142.022 488.49 148.197L489.428 148.815C491.701 149.962 493.505 151.67 494.598 153.711C495.691 155.752 496.021 158.028 495.542 160.232C495.542 163.704 495.09 168.089 494.812 172.974C493.492 193.896 491.095 232.797 497.139 238.182C497.522 238.535 497.765 238.535 497.834 238.535C501.308 238.535 526.875 241.007 528.612 242.243C531.286 244.155 518.642 288.677 501.516 316.544C485.989 342.409 467.682 355.386 447.222 355.386ZM381.221 241.801V242.096C377.122 265.401 382.02 290.178 395.741 315.661C406.405 335.494 420.057 347.412 436.488 351.119C442.49 352.515 448.798 352.682 454.892 351.608C460.986 350.534 466.691 348.248 471.538 344.94C507.7 322.076 524.443 254.484 525.972 244.538C516.774 243.155 507.498 242.173 498.182 241.595C497.57 241.583 496.967 241.464 496.412 241.246C495.856 241.028 495.359 240.717 494.951 240.33C488.455 234.445 489.671 205.019 491.686 172.944C491.964 168.059 492.242 163.704 492.415 160.232C492.675 158.402 492.413 156.545 491.651 154.818C490.614 153.39 489.228 152.166 487.587 151.228L486.649 150.58C477.764 143.97 471.666 135.085 469.28 125.274C467.232 116.897 466.392 108.34 466.779 99.7909C462.506 101.968 453.197 105.117 432.597 109.59C419.345 112.446 405.733 113.928 392.059 114.004C384.66 114.004 384.66 114.004 383.652 119.889V120.683C382.575 126.569 381.499 133.042 380.665 139.31C378.808 151.655 378.471 164.13 379.658 176.534C379.887 182.607 382.022 188.518 385.841 193.66C390.843 199.545 399.736 202.9 412.971 204.342C413.397 204.379 413.792 204.551 414.075 204.824C414.359 205.097 414.51 205.45 414.499 205.813L413.7 237.858C413.7 239.624 413.7 240.183 383.687 241.772H381.394L381.221 241.801Z" fill="#231F20"/>
<path d="M475.533 172.385C482.203 174.321 489.505 173.951 495.854 171.355C500.959 168.952 505.117 165.33 507.81 160.941C510.503 156.551 511.612 151.587 511 146.667C510.829 144.081 509.897 141.572 508.29 139.369C505.094 135.338 499.919 134.838 494.708 135.661C486.996 136.868 484.287 140.134 479.18 144.489" fill="white"/>
<path d="M484.217 175.093C481.071 175.093 477.948 174.645 474.977 173.768C474.544 173.635 474.188 173.364 473.987 173.012C473.786 172.66 473.755 172.256 473.9 171.885C473.974 171.701 474.091 171.532 474.244 171.387C474.396 171.242 474.582 171.125 474.79 171.042C474.998 170.96 475.223 170.914 475.452 170.907C475.681 170.9 475.91 170.933 476.124 171.002C479.205 171.904 482.466 172.283 485.721 172.116C488.975 171.95 492.159 171.241 495.09 170.031C499.896 167.781 503.807 164.374 506.33 160.242C508.852 156.11 509.873 151.437 509.263 146.814C509.139 144.467 508.301 142.186 506.831 140.193C504.504 137.251 500.648 136.221 495.021 137.103C489.986 137.948 485.496 140.337 482.411 143.813L480.431 145.578C480.276 145.733 480.086 145.859 479.871 145.949C479.656 146.038 479.422 146.089 479.183 146.099C478.944 146.108 478.705 146.075 478.482 146.002C478.258 145.93 478.055 145.819 477.885 145.676C477.714 145.534 477.58 145.363 477.491 145.175C477.403 144.987 477.361 144.785 477.368 144.583C477.376 144.38 477.432 144.181 477.535 143.998C477.638 143.815 477.784 143.651 477.965 143.518L479.91 141.782C483.486 137.848 488.639 135.158 494.395 134.22C501.343 133.102 506.588 134.573 509.715 138.545C511.514 140.939 512.555 143.686 512.737 146.52C513.417 151.743 512.247 157.019 509.377 161.678C506.507 166.336 502.066 170.166 496.619 172.68C492.753 174.267 488.513 175.092 484.217 175.093Z" fill="#231F20"/>
<path d="M413.944 229.825C413.944 229.825 427.317 230.914 440.796 218.054C454.274 205.195 452.189 195.161 452.189 195.161C452.189 195.161 444.026 206.725 412.763 205.754L413.944 229.825Z" fill="#231F20"/>
<path d="M414.777 231.414H413.804C413.386 231.379 412.997 231.216 412.71 230.956C412.422 230.697 412.256 230.357 412.241 230.002L411.164 205.843C411.16 205.641 411.203 205.44 411.292 205.252C411.381 205.065 411.514 204.895 411.683 204.752C411.852 204.609 412.053 204.496 412.274 204.421C412.495 204.345 412.732 204.309 412.971 204.313C442.532 205.254 450.626 194.514 450.73 194.396C450.906 194.136 451.172 193.929 451.493 193.803C451.814 193.677 452.173 193.639 452.521 193.694C452.868 193.749 453.187 193.894 453.433 194.11C453.678 194.325 453.839 194.6 453.891 194.896C453.891 195.338 455.975 205.696 442.081 219.026C430.131 230.502 418.251 231.414 414.777 231.414ZM414.777 207.255L415.68 228.442C419.397 228.265 429.575 226.765 439.579 217.084C445.259 212.108 449.046 205.804 450.452 198.986C445.659 202.459 435.168 207.608 414.708 207.255H414.777Z" fill="#231F20"/>
<path d="M423.74 137.456C423.74 137.456 407.483 160.203 411.825 163.94C416.167 167.677 427.63 164.617 427.63 164.617" fill="white"/>
<path d="M418.946 167.206C415.919 167.401 412.923 166.576 410.609 164.911C405.78 160.85 417.14 143.842 422.246 136.692C422.485 136.356 422.873 136.115 423.322 136.021C423.772 135.927 424.247 135.988 424.643 136.191C425.039 136.394 425.324 136.722 425.435 137.103C425.545 137.484 425.473 137.886 425.233 138.222C416.931 149.816 411.338 161.321 413.041 162.822C415.993 165.323 424.226 163.911 427.144 163.175C427.36 163.112 427.59 163.087 427.818 163.102C428.046 163.118 428.268 163.173 428.47 163.264C428.672 163.355 428.85 163.48 428.992 163.632C429.135 163.784 429.239 163.959 429.298 164.146C429.428 164.517 429.381 164.916 429.166 165.257C428.952 165.599 428.587 165.855 428.151 165.97C425.166 166.744 422.067 167.16 418.946 167.206Z" fill="#231F20"/>
<path d="M416.479 185.097C408.123 185.128 399.797 184.238 391.712 182.449C391.493 182.395 391.289 182.305 391.111 182.184C390.933 182.063 390.785 181.913 390.675 181.744C390.565 181.575 390.496 181.388 390.471 181.196C390.447 181.004 390.467 180.81 390.531 180.624C390.667 180.254 390.968 179.943 391.37 179.757C391.771 179.57 392.242 179.523 392.684 179.624C392.997 179.624 426.206 187.569 451.564 174.798C451.966 174.604 452.442 174.55 452.89 174.649C453.338 174.748 453.722 174.992 453.961 175.328C454.189 175.664 454.251 176.063 454.134 176.437C454.017 176.812 453.73 177.132 453.336 177.329C442.093 182.667 429.364 185.35 416.479 185.097Z" fill="#231F20"/>
<path d="M404.044 138.987C400.735 139.014 397.518 138.068 394.942 136.309C394.78 136.172 394.65 136.009 394.562 135.83C394.474 135.651 394.429 135.458 394.429 135.264C394.429 135.07 394.474 134.878 394.562 134.698C394.65 134.519 394.78 134.356 394.942 134.22C395.101 134.083 395.29 133.974 395.499 133.899C395.708 133.825 395.932 133.787 396.158 133.787C396.385 133.787 396.609 133.825 396.818 133.899C397.026 133.974 397.216 134.083 397.374 134.22C397.617 134.396 403.314 138.516 412.103 134.043C412.299 133.942 412.516 133.874 412.743 133.844C412.97 133.814 413.201 133.823 413.424 133.87C413.647 133.916 413.857 134 414.042 134.115C414.226 134.231 414.382 134.376 414.5 134.543C414.732 134.88 414.801 135.281 414.691 135.66C414.58 136.039 414.3 136.367 413.909 136.574C410.949 138.138 407.533 138.974 404.044 138.987Z" fill="#231F20"/>
<path d="M445.52 137.839C442.206 137.895 438.978 136.945 436.418 135.161C436.257 135.027 436.128 134.867 436.04 134.69C435.953 134.513 435.908 134.323 435.908 134.131C435.908 133.94 435.953 133.75 436.04 133.573C436.128 133.396 436.257 133.236 436.418 133.101C436.58 132.964 436.772 132.854 436.984 132.779C437.195 132.705 437.422 132.666 437.652 132.666C437.881 132.666 438.108 132.705 438.32 132.779C438.531 132.854 438.723 132.964 438.885 133.101C439.128 133.307 444.825 137.398 453.613 132.925C454.011 132.728 454.484 132.67 454.932 132.763C455.379 132.857 455.766 133.094 456.01 133.425C456.24 133.766 456.303 134.169 456.186 134.548C456.069 134.928 455.782 135.253 455.385 135.456C452.423 137.014 449.006 137.84 445.52 137.839Z" fill="#231F20"/>
<path d="M739.294 502.517C733.771 481.712 713.554 483.507 665.303 489.599C617.053 495.69 488.594 543.919 403.175 562.722C379.692 574.875 353.639 632.315 369.931 629.549C386.223 626.783 429.679 601.035 429.679 601.035C429.679 601.035 611.182 574.316 663.358 566.018C715.534 557.72 744.956 523.321 739.294 502.517Z" fill="white"/>
<path d="M368.959 631.109C367.866 631.124 366.795 630.849 365.897 630.321C365 629.793 364.321 629.039 363.956 628.166C358.572 616.396 382.159 571.992 402.376 561.545C402.521 561.457 402.687 561.397 402.862 561.369C443.991 552.335 494.152 536.739 542.646 521.673C592.702 506.077 639.91 491.394 665.165 488.216C711.678 482.33 735.021 479.388 741.1 502.281C743.358 510.697 740.128 521.32 732.277 531.442C718.382 549.481 692.677 562.958 663.775 567.548C613.336 575.582 439.823 601.123 430.479 602.506C426.171 605.037 386.293 628.372 370.383 631.079C369.911 631.13 369.433 631.14 368.959 631.109ZM403.974 564.076C384.347 574.463 362.914 617.749 367.187 626.989C367.248 627.21 367.365 627.417 367.529 627.597C367.693 627.776 367.9 627.924 368.137 628.03C368.374 628.136 368.635 628.198 368.903 628.211C369.17 628.224 369.438 628.189 369.688 628.107C385.459 625.429 428.36 600.064 428.742 599.829C428.965 599.706 429.212 599.616 429.471 599.564C431.278 599.299 611.565 572.757 663.08 564.576C691.079 560.133 715.846 547.097 729.325 529.736C736.654 520.29 739.746 510.462 737.696 502.84C732.555 483.625 715.186 484.802 665.616 491.07C640.848 494.189 593.71 508.726 543.792 524.351C495.368 539.417 445.242 554.983 403.974 564.076Z" fill="#231F20"/>
<path d="M167.864 369.069H166.822C164.785 369.017 162.79 368.573 160.985 367.773C159.18 366.973 157.612 365.837 156.4 364.449C155.168 362.94 154.572 361.122 154.711 359.29C154.85 357.459 155.714 355.72 157.165 354.356C157.495 354.085 157.937 353.933 158.398 353.933C158.858 353.933 159.3 354.085 159.631 354.356C159.794 354.493 159.923 354.656 160.011 354.835C160.099 355.014 160.145 355.207 160.145 355.401C160.145 355.595 160.099 355.787 160.011 355.967C159.923 356.146 159.794 356.309 159.631 356.446C158.746 357.321 158.232 358.422 158.169 359.573C158.106 360.724 158.498 361.86 159.284 362.802C160.191 363.811 161.356 364.634 162.691 365.21C164.026 365.786 165.498 366.099 166.995 366.127C170.254 366.177 173.484 365.604 176.444 364.449C189.54 359.918 199.648 350.707 208.576 342.615C209.792 341.497 210.973 340.349 210.903 339.202C210.834 338.054 208.541 336.759 206.596 336.759C205.059 336.822 203.534 337.019 202.045 337.348C200.903 337.607 199.743 337.804 198.572 337.937C198.345 337.965 198.114 337.955 197.892 337.907C197.671 337.858 197.463 337.773 197.281 337.654C197.1 337.536 196.948 337.388 196.835 337.219C196.723 337.05 196.652 336.864 196.626 336.671C196.567 336.285 196.691 335.895 196.971 335.586C197.251 335.277 197.664 335.075 198.12 335.023C199.127 335.023 200.135 334.7 201.142 334.494C202.898 334.083 204.706 333.856 206.526 333.817C208.354 333.723 210.157 334.207 211.588 335.175C213.019 336.142 213.975 337.525 214.273 339.055C214.179 341.161 213.105 343.15 211.285 344.587C202.601 352.502 191.728 362.243 177.938 367.127C174.765 368.333 171.34 368.993 167.864 369.069Z" fill="#231F20"/>
<path d="M920.241 509.579H795.43C794.969 509.579 794.527 509.424 794.202 509.148C793.876 508.872 793.693 508.498 793.693 508.108C793.693 507.717 793.876 507.343 794.202 507.067C794.527 506.791 794.969 506.636 795.43 506.636H918.018C910.306 482.742 882.76 465.44 854.344 467.058C854.039 467.079 853.733 467.03 853.458 466.916C853.183 466.803 852.949 466.628 852.781 466.411C852.629 466.182 852.549 465.923 852.549 465.66C852.549 465.398 852.629 465.139 852.781 464.91C861.223 451.315 854.067 431.835 837.427 423.272C821.969 415.298 799.737 416.445 783.307 426.068C783.031 426.199 782.72 426.268 782.403 426.268C782.087 426.268 781.776 426.199 781.5 426.068C781.218 425.941 780.984 425.75 780.824 425.515C780.665 425.281 780.586 425.014 780.597 424.744C780.684 419.168 779.159 413.66 776.155 408.699C773.151 403.738 768.759 399.475 763.363 396.283C757.967 393.09 751.73 391.065 745.197 390.384C738.665 389.703 732.035 390.386 725.886 392.375C725.457 392.509 724.983 392.494 724.567 392.335C724.151 392.175 723.826 391.883 723.662 391.521C723.579 391.342 723.539 391.15 723.545 390.958C723.551 390.765 723.602 390.575 723.696 390.4C723.79 390.224 723.925 390.066 724.092 389.935C724.259 389.805 724.456 389.704 724.67 389.638C731.085 387.557 737.99 386.785 744.823 387.385C751.656 387.986 758.226 389.941 764.001 393.094C769.776 396.246 774.593 400.506 778.062 405.53C781.53 410.553 783.553 416.198 783.966 422.007C801.335 412.973 823.22 412.326 839.234 420.594C856.602 429.422 864.314 449.138 857.089 463.851H858.061C872.917 464.176 887.231 468.638 898.791 476.548C910.352 484.458 918.513 495.374 922.013 507.607C922.068 507.822 922.065 508.045 922.005 508.259C921.945 508.473 921.829 508.672 921.666 508.843C921.523 509.059 921.317 509.24 921.067 509.369C920.818 509.498 920.533 509.57 920.241 509.579Z" fill="#D1D3D4"/>
<path d="M246.016 276.23H246.023H246.544H246.59L246.635 276.221C246.914 276.17 247.182 276.07 247.422 275.926C247.662 275.782 247.871 275.595 248.033 275.372C248.195 275.149 248.306 274.896 248.355 274.627C248.403 274.359 248.387 274.085 248.309 273.824C231.009 212.839 185.83 160.197 122.743 127.458C122.499 127.309 122.225 127.206 121.94 127.152C121.647 127.096 121.345 127.093 121.051 127.142C120.757 127.191 120.475 127.292 120.222 127.44C119.97 127.589 119.75 127.785 119.582 128.018C119.413 128.252 119.299 128.519 119.254 128.801C119.208 129.084 119.233 129.371 119.325 129.643C119.416 129.915 119.571 130.161 119.774 130.368C119.972 130.57 120.212 130.731 120.476 130.846C182.506 163.076 226.874 214.828 243.873 274.715C243.994 275.162 244.282 275.545 244.671 275.812C245.06 276.08 245.534 276.223 246.016 276.23Z" fill="#2DBEA2" stroke="#2DBEA2"/>
<path d="M211.841 242.743C211.561 242.745 211.286 242.684 211.042 242.567C175.862 226.342 145.166 203.955 120.998 176.896C96.8291 149.837 79.7431 118.727 70.877 85.6372C70.8266 85.4155 70.8346 85.1871 70.9007 84.9683C70.9668 84.7495 71.0892 84.5459 71.2592 84.3719C71.4198 84.1938 71.6323 84.054 71.8759 83.9663C72.1195 83.8786 72.3857 83.846 72.6486 83.8717C89.4268 84.4308 105.337 90.7574 119.336 96.3189C143.096 105.735 167.655 115.505 188.289 130.071C218.928 151.817 240.396 184.185 248.281 221.292C248.322 221.485 248.318 221.683 248.268 221.875C248.219 222.067 248.126 222.248 247.993 222.409C247.726 222.735 247.317 222.957 246.857 223.028C246.396 223.098 245.921 223.01 245.537 222.784C245.153 222.558 244.89 222.211 244.807 221.821C236.957 185.392 216.045 153.612 185.997 132.336C165.745 118.006 141.394 108.325 117.842 98.9672C104.781 93.7883 90.0521 87.9325 74.7676 86.9025C83.7506 119.188 100.674 149.504 124.431 175.871C148.189 202.238 178.247 224.063 212.64 239.918C212.84 240.008 213.017 240.13 213.161 240.278C213.304 240.426 213.411 240.597 213.476 240.781C213.541 240.964 213.562 241.157 213.537 241.347C213.513 241.538 213.444 241.722 213.335 241.89C213.202 242.134 212.992 242.343 212.729 242.493C212.466 242.644 212.159 242.73 211.841 242.743Z" fill="#2DBEA2"/>
<path d="M657.337 309.593L657.323 309.587C656.81 309.365 656.393 308.972 656.189 308.467C655.982 307.957 656.019 307.397 656.285 306.915L656.29 306.907L656.29 306.907C697.676 235.217 760.908 174.203 839.44 130.164C839.684 130.027 839.954 129.933 840.235 129.886C840.516 129.839 840.804 129.839 841.085 129.887C841.366 129.934 841.636 130.029 841.88 130.167C842.124 130.305 842.339 130.486 842.51 130.703C842.68 130.92 842.802 131.168 842.865 131.434M657.337 309.593L842.378 131.548M657.337 309.593L657.352 309.599C657.643 309.704 657.952 309.763 658.265 309.775M657.337 309.593L842.377 132.127M842.865 131.434L842.378 131.548M842.865 131.434C842.865 131.434 842.865 131.434 842.865 131.434L842.378 131.548M842.865 131.434C842.927 131.701 842.927 131.976 842.864 132.242M842.378 131.548C842.422 131.739 842.422 131.936 842.377 132.127M842.864 132.242L842.377 132.127M842.864 132.242C842.864 132.242 842.864 132.242 842.864 132.242L842.377 132.127M842.864 132.242C842.801 132.508 842.678 132.756 842.507 132.973C842.336 133.189 842.12 133.369 841.876 133.507L841.875 133.508C763.973 177.187 701.281 237.705 660.282 308.79L660.277 308.8L660.27 308.81C660.064 309.132 659.761 309.386 659.407 309.553C659.054 309.718 658.659 309.794 658.265 309.775M658.265 309.775C658.264 309.775 658.262 309.775 658.261 309.775L658.286 309.275L658.268 309.775C658.267 309.775 658.266 309.775 658.265 309.775Z" fill="#2DBEA2" stroke="#2DBEA2"/>
<path d="M715.916 268.462C715.455 268.543 714.975 268.467 714.581 268.249C714.187 268.031 713.911 267.689 713.814 267.299C713.718 266.909 713.808 266.502 714.065 266.168C714.322 265.834 714.726 265.601 715.186 265.519C754.1 250.019 788.952 228.071 817.686 200.971C846.419 173.871 868.452 142.169 882.482 107.736C883.243 106.421 883.439 104.923 883.037 103.499C881.961 101.439 877.757 101.468 875.361 101.645C833.849 104.882 791.991 122.243 747.388 155.2C702.785 188.158 679.268 219.614 674.613 252.542C674.586 252.735 674.514 252.922 674.401 253.092C674.289 253.261 674.138 253.41 673.957 253.531C673.776 253.651 673.57 253.74 673.348 253.792C673.127 253.845 672.896 253.86 672.668 253.837C672.44 253.814 672.219 253.753 672.019 253.657C671.819 253.562 671.643 253.434 671.501 253.281C671.359 253.128 671.254 252.953 671.192 252.765C671.13 252.578 671.112 252.382 671.139 252.189C675.864 218.525 700.076 186.068 745.061 152.964C790.045 119.86 832.738 101.998 874.978 98.7024C882.412 98.1433 885.156 100.35 886.164 102.322C886.987 104.408 886.838 106.682 885.747 108.678C871.561 143.489 849.285 175.539 820.236 202.937C791.186 230.334 755.951 252.524 716.611 268.197C716.403 268.324 716.166 268.414 715.916 268.462Z" fill="#2DBEA2"/>
<path d="M636.216 297.687L636.29 297.711H636.367H636.988C637.407 297.717 637.823 297.622 638.189 297.431C638.555 297.239 638.862 296.955 639.061 296.603L639.071 296.585L639.079 296.566C644.544 284.697 645.551 271.809 645.864 259.735L645.864 259.733C647.491 185.864 623.803 113.186 577.682 50.5004L577.682 50.5003C577.355 50.0562 576.849 49.7596 576.292 49.6501C575.734 49.5406 575.145 49.6215 574.648 49.8837C574.151 50.1464 573.771 50.5806 573.625 51.1115C573.479 51.647 573.593 52.204 573.924 52.6526C619.577 114.681 643.008 186.585 641.391 259.651C641.113 271.441 640.105 283.829 634.906 295.088L634.906 295.089C634.791 295.338 634.734 295.608 634.741 295.882C634.749 296.156 634.821 296.422 634.949 296.666C635.077 296.909 635.258 297.122 635.475 297.296C635.693 297.469 635.945 297.601 636.216 297.687Z" fill="#EAA4DF" stroke="#EAA4DF"/>
<path d="M621.499 240.33C621.048 240.327 620.614 240.18 620.284 239.918C548.968 182.714 523.297 88.3444 557.756 10.3947C557.844 10.1877 557.987 10.0005 558.174 9.84748C558.361 9.69447 558.586 9.57967 558.833 9.51188C559.073 9.44039 559.33 9.41647 559.583 9.44197C559.836 9.46747 560.078 9.54172 560.292 9.65901C641.334 52.5917 685.347 138.104 667.353 217.613C667.26 217.997 666.994 218.335 666.611 218.555C666.228 218.775 665.759 218.86 665.303 218.79C664.85 218.712 664.451 218.486 664.191 218.162C663.931 217.838 663.832 217.44 663.914 217.054C681.56 139.31 638.972 55.7108 560.257 13.1313C527.292 89.6391 552.754 181.713 622.576 237.741C622.738 237.875 622.866 238.035 622.954 238.212C623.042 238.389 623.087 238.579 623.087 238.771C623.087 238.962 623.042 239.152 622.954 239.329C622.866 239.506 622.738 239.666 622.576 239.801C622.311 240.088 621.926 240.278 621.499 240.33Z" fill="#EAA4DF"/>
<path d="M283.843 234.851L283.882 234.857H283.922H284.231C284.729 234.863 285.222 234.721 285.624 234.443C286.028 234.164 286.321 233.759 286.425 233.287L286.425 233.287L286.427 233.278C291.784 206.5 301.893 180.561 316.413 156.34L316.418 156.332L316.423 156.323C318.116 153.231 320.21 150.306 322.667 147.602C322.859 147.411 323.01 147.186 323.105 146.936C323.203 146.681 323.241 146.409 323.213 146.138C323.186 145.867 323.095 145.607 322.95 145.375C322.806 145.143 322.612 144.944 322.384 144.786C321.927 144.467 321.354 144.319 320.787 144.36C320.219 144.4 319.677 144.628 319.282 145.015L319.272 145.025L319.263 145.035C316.591 147.953 314.298 151.11 312.425 154.45C297.715 179.039 287.46 205.369 282.007 232.552L282.007 232.552L282.006 232.559C281.906 233.101 282.062 233.643 282.417 234.068H282.417C282.769 234.49 283.284 234.762 283.843 234.851Z" fill="#EAA4DF" stroke="#EAA4DF"/>
<path d="M310.634 209.845C310.401 209.848 310.17 209.81 309.955 209.734C309.74 209.658 309.546 209.546 309.384 209.403C309.221 209.267 309.092 209.104 309.004 208.925C308.916 208.745 308.87 208.553 308.87 208.359C308.87 208.164 308.916 207.972 309.004 207.793C309.092 207.614 309.221 207.451 309.384 207.314C323.611 195.381 333.391 180.173 337.51 163.575C341.628 146.977 339.905 129.721 332.554 113.945C332.206 113.18 331.998 113.062 331.963 113.033C331.928 113.003 331.685 113.033 330.643 113.504C326.58 115.773 322.807 118.397 319.388 121.331C303.374 134.367 293.162 146.108 287.221 158.231C279.683 173.651 279.579 189.776 286.944 202.371C287.078 202.545 287.167 202.741 287.205 202.947C287.244 203.152 287.23 203.362 287.165 203.563C287.101 203.764 286.987 203.95 286.83 204.111C286.674 204.272 286.48 204.402 286.259 204.495C286.039 204.587 285.799 204.638 285.553 204.646C285.308 204.654 285.063 204.617 284.836 204.539C284.608 204.46 284.403 204.342 284.233 204.191C284.064 204.041 283.934 203.861 283.852 203.665C276.036 190.247 276.105 173.268 284.026 157.054C290.139 144.519 300.63 132.484 316.991 119.154C320.581 116.057 324.552 113.294 328.837 110.914C329.466 110.519 330.197 110.254 330.969 110.142C331.741 110.029 332.534 110.072 333.283 110.267C333.872 110.514 334.395 110.86 334.82 111.286C335.244 111.711 335.56 112.205 335.75 112.739C343.363 129.072 345.146 146.939 340.879 164.124C336.612 181.308 326.482 197.052 311.746 209.403C311.455 209.665 311.058 209.823 310.634 209.845Z" fill="#EAA4DF"/>
</g>
<defs>
<clipPath id="clip0_1_20">
<rect width="932" height="661" fill="white"/>
</clipPath>
</defs>
</svg>
