<svg width="157" height="118" viewBox="0 0 157 118" fill="none" xmlns="http://www.w3.org/2000/svg">
<path d="M119.771 43.2858L123.072 50.0729L126.373 43.2858H129.088L124.303 52.2701V57.5045H121.832V52.2701L117.047 43.2858H119.771ZM129.312 52.3385V52.1139C129.312 51.3522 129.423 50.6458 129.645 49.9948C129.866 49.3372 130.185 48.7675 130.602 48.2858C131.025 47.7975 131.539 47.4199 132.145 47.153C132.756 46.8795 133.447 46.7428 134.215 46.7428C134.99 46.7428 135.68 46.8795 136.285 47.153C136.897 47.4199 137.415 47.7975 137.838 48.2858C138.261 48.7675 138.583 49.3372 138.805 49.9948C139.026 50.6458 139.137 51.3522 139.137 52.1139V52.3385C139.137 53.1002 139.026 53.8066 138.805 54.4576C138.583 55.1087 138.261 55.6783 137.838 56.1666C137.415 56.6484 136.9 57.026 136.295 57.2994C135.689 57.5664 135.003 57.6998 134.234 57.6998C133.46 57.6998 132.766 57.5664 132.154 57.2994C131.549 57.026 131.034 56.6484 130.611 56.1666C130.188 55.6783 129.866 55.1087 129.645 54.4576C129.423 53.8066 129.312 53.1002 129.312 52.3385ZM131.666 52.1139V52.3385C131.666 52.8138 131.715 53.263 131.812 53.6862C131.91 54.1093 132.063 54.4804 132.271 54.7994C132.48 55.1184 132.747 55.3691 133.072 55.5514C133.398 55.7337 133.785 55.8248 134.234 55.8248C134.671 55.8248 135.048 55.7337 135.367 55.5514C135.693 55.3691 135.96 55.1184 136.168 54.7994C136.376 54.4804 136.529 54.1093 136.627 53.6862C136.731 53.263 136.783 52.8138 136.783 52.3385V52.1139C136.783 51.6451 136.731 51.2024 136.627 50.7858C136.529 50.3626 136.373 49.9882 136.158 49.6627C135.95 49.3372 135.683 49.0833 135.357 48.901C135.038 48.7122 134.658 48.6178 134.215 48.6178C133.772 48.6178 133.388 48.7122 133.062 48.901C132.743 49.0833 132.48 49.3372 132.271 49.6627C132.063 49.9882 131.91 50.3626 131.812 50.7858C131.715 51.2024 131.666 51.6451 131.666 52.1139ZM147.467 55.0143V46.9381H149.83V57.5045H147.604L147.467 55.0143ZM147.799 52.817L148.59 52.7975C148.59 53.5071 148.512 54.1614 148.355 54.7604C148.199 55.3528 147.958 55.8704 147.633 56.3131C147.307 56.7493 146.891 57.0911 146.383 57.3385C145.875 57.5794 145.266 57.6998 144.557 57.6998C144.042 57.6998 143.57 57.625 143.141 57.4752C142.711 57.3255 142.34 57.0944 142.027 56.7819C141.721 56.4694 141.484 56.0625 141.314 55.5612C141.145 55.0599 141.061 54.4609 141.061 53.7643V46.9381H143.414V53.7838C143.414 54.1679 143.46 54.4902 143.551 54.7506C143.642 55.0045 143.766 55.2096 143.922 55.3658C144.078 55.5221 144.26 55.6328 144.469 55.6979C144.677 55.763 144.898 55.7955 145.133 55.7955C145.803 55.7955 146.331 55.6653 146.715 55.4049C147.105 55.138 147.382 54.7799 147.545 54.3307C147.714 53.8815 147.799 53.3769 147.799 52.817ZM114.273 69.2858L117.574 76.0729L120.875 69.2858H123.59L118.805 78.2701V83.5045H116.334V78.2701L111.549 69.2858H114.273ZM123.814 78.3385V78.1139C123.814 77.3522 123.925 76.6458 124.146 75.9948C124.368 75.3372 124.687 74.7675 125.104 74.2858C125.527 73.7975 126.041 73.4199 126.646 73.153C127.258 72.8795 127.949 72.7428 128.717 72.7428C129.492 72.7428 130.182 72.8795 130.787 73.153C131.399 73.4199 131.917 73.7975 132.34 74.2858C132.763 74.7675 133.085 75.3372 133.307 75.9948C133.528 76.6458 133.639 77.3522 133.639 78.1139V78.3385C133.639 79.1002 133.528 79.8066 133.307 80.4576C133.085 81.1087 132.763 81.6783 132.34 82.1666C131.917 82.6484 131.402 83.026 130.797 83.2994C130.191 83.5664 129.505 83.6998 128.736 83.6998C127.962 83.6998 127.268 83.5664 126.656 83.2994C126.051 83.026 125.536 82.6484 125.113 82.1666C124.69 81.6783 124.368 81.1087 124.146 80.4576C123.925 79.8066 123.814 79.1002 123.814 78.3385ZM126.168 78.1139V78.3385C126.168 78.8138 126.217 79.263 126.314 79.6862C126.412 80.1093 126.565 80.4804 126.773 80.7994C126.982 81.1184 127.249 81.3691 127.574 81.5514C127.9 81.7337 128.287 81.8248 128.736 81.8248C129.173 81.8248 129.55 81.7337 129.869 81.5514C130.195 81.3691 130.462 81.1184 130.67 80.7994C130.878 80.4804 131.031 80.1093 131.129 79.6862C131.233 79.263 131.285 78.8138 131.285 78.3385V78.1139C131.285 77.6451 131.233 77.2024 131.129 76.7858C131.031 76.3626 130.875 75.9882 130.66 75.6627C130.452 75.3372 130.185 75.0833 129.859 74.901C129.54 74.7122 129.159 74.6178 128.717 74.6178C128.274 74.6178 127.89 74.7122 127.564 74.901C127.245 75.0833 126.982 75.3372 126.773 75.6627C126.565 75.9882 126.412 76.3626 126.314 76.7858C126.217 77.2024 126.168 77.6451 126.168 78.1139ZM142.379 72.9381H144.518V83.2115C144.518 84.1621 144.316 84.9694 143.912 85.6334C143.508 86.2975 142.945 86.802 142.223 87.1471C141.5 87.4987 140.663 87.6744 139.713 87.6744C139.309 87.6744 138.86 87.6158 138.365 87.4987C137.877 87.3815 137.402 87.1927 136.939 86.9323C136.484 86.6783 136.103 86.3431 135.797 85.9264L136.9 84.5397C137.278 84.9889 137.695 85.3177 138.15 85.526C138.606 85.7343 139.085 85.8385 139.586 85.8385C140.126 85.8385 140.585 85.7376 140.963 85.5358C141.347 85.3405 141.643 85.0507 141.852 84.6666C142.06 84.2825 142.164 83.8138 142.164 83.2604V75.3307L142.379 72.9381ZM135.201 78.3385V78.1334C135.201 77.3326 135.299 76.6035 135.494 75.9459C135.689 75.2819 135.969 74.7122 136.334 74.2369C136.699 73.7552 137.141 73.3873 137.662 73.1334C138.183 72.873 138.772 72.7428 139.43 72.7428C140.113 72.7428 140.696 72.8665 141.178 73.1139C141.666 73.3613 142.073 73.7161 142.398 74.1783C142.724 74.6341 142.978 75.1809 143.16 75.819C143.349 76.4505 143.489 77.1536 143.58 77.9283V78.5826C143.495 79.3378 143.352 80.028 143.15 80.653C142.949 81.278 142.682 81.8183 142.35 82.274C142.018 82.7298 141.607 83.0813 141.119 83.3287C140.637 83.5761 140.068 83.6998 139.41 83.6998C138.766 83.6998 138.183 83.5664 137.662 83.2994C137.148 83.0325 136.705 82.6582 136.334 82.1764C135.969 81.6946 135.689 81.1282 135.494 80.4772C135.299 79.8196 135.201 79.1067 135.201 78.3385ZM137.555 78.1334V78.3385C137.555 78.8203 137.6 79.2695 137.691 79.6862C137.789 80.1028 137.936 80.4707 138.131 80.7897C138.333 81.1022 138.587 81.3496 138.893 81.5319C139.205 81.7076 139.573 81.7955 139.996 81.7955C140.549 81.7955 141.002 81.6783 141.354 81.444C141.712 81.2096 141.985 80.8938 142.174 80.4967C142.369 80.0931 142.506 79.6438 142.584 79.149V77.3815C142.545 76.9974 142.464 76.6393 142.34 76.3073C142.223 75.9752 142.063 75.6855 141.861 75.4381C141.659 75.1842 141.406 74.9889 141.1 74.8522C140.794 74.7089 140.432 74.6373 140.016 74.6373C139.592 74.6373 139.225 74.7285 138.912 74.9108C138.6 75.0931 138.342 75.3437 138.141 75.6627C137.945 75.9817 137.799 76.3528 137.701 76.776C137.604 77.1992 137.555 77.6517 137.555 78.1334ZM152.916 81.3854V76.3463C152.916 75.9687 152.848 75.6432 152.711 75.3698C152.574 75.0963 152.366 74.8847 152.086 74.735C151.812 74.5852 151.467 74.5104 151.051 74.5104C150.667 74.5104 150.335 74.5755 150.055 74.7057C149.775 74.8359 149.557 75.0117 149.4 75.233C149.244 75.4544 149.166 75.705 149.166 75.985H146.822C146.822 75.5683 146.923 75.1647 147.125 74.774C147.327 74.3834 147.62 74.0351 148.004 73.7291C148.388 73.4231 148.847 73.1823 149.381 73.0065C149.915 72.8307 150.514 72.7428 151.178 72.7428C151.972 72.7428 152.675 72.8763 153.287 73.1432C153.906 73.4101 154.391 73.8138 154.742 74.3541C155.1 74.888 155.279 75.5586 155.279 76.3658V81.0631C155.279 81.5449 155.312 81.9778 155.377 82.3619C155.449 82.7395 155.549 83.0683 155.68 83.3483V83.5045H153.268C153.157 83.2506 153.069 82.9283 153.004 82.5377C152.945 82.1406 152.916 81.7565 152.916 81.3854ZM153.258 77.0787L153.277 78.5338H151.588C151.152 78.5338 150.768 78.5761 150.436 78.6608C150.104 78.7389 149.827 78.8561 149.605 79.0123C149.384 79.1686 149.218 79.3574 149.107 79.5787C148.997 79.8001 148.941 80.0507 148.941 80.3307C148.941 80.6106 149.006 80.8678 149.137 81.1022C149.267 81.33 149.456 81.5091 149.703 81.6393C149.957 81.7695 150.263 81.8346 150.621 81.8346C151.103 81.8346 151.523 81.7369 151.881 81.5416C152.245 81.3398 152.532 81.0957 152.74 80.8092C152.949 80.5162 153.059 80.2395 153.072 79.9791L153.834 81.024C153.756 81.291 153.622 81.5774 153.434 81.8834C153.245 82.1894 152.997 82.4824 152.691 82.7623C152.392 83.0358 152.031 83.2604 151.607 83.4362C151.191 83.6119 150.709 83.6998 150.162 83.6998C149.472 83.6998 148.857 83.5631 148.316 83.2897C147.776 83.0097 147.353 82.6354 147.047 82.1666C146.741 81.6914 146.588 81.1543 146.588 80.5553C146.588 79.9954 146.692 79.5006 146.9 79.0709C147.115 78.6347 147.428 78.2701 147.838 77.9772C148.255 77.6842 148.762 77.4628 149.361 77.3131C149.96 77.1569 150.644 77.0787 151.412 77.0787H153.258Z" fill="#676C6F"/>
<path d="M29.6128 52.4762L29.6129 52.4762C28.9113 47.3116 27.4285 42.2523 25.2257 37.5083C25.1178 37.2816 25.0499 37.0368 25.0262 36.7862M29.6128 52.4762L25.0262 36.7862M29.6128 52.4762L29.6143 52.486M29.6128 52.4762L29.6143 52.486M25.0262 36.7862C25.0022 36.5332 25.0234 36.2753 25.0927 36.027M25.0262 36.7862L25.0927 36.027M25.0927 36.027C25.2329 35.5252 25.5663 35.0817 26.0528 34.8311C26.5419 34.5791 27.1026 34.5657 27.5978 34.7625M25.0927 36.027L27.5978 34.7625M27.5978 34.7625C28.0875 34.957 28.4705 35.337 28.6904 35.795M27.5978 34.7625L28.6904 35.795M29.6143 52.486C31.828 67.6566 29.552 82.8568 23.1413 95.8517C23.0083 96.1015 22.9351 96.3751 22.9188 96.6504C22.9026 96.9256 22.9432 97.2008 23.0354 97.4581C23.1806 97.9008 23.4696 98.2945 23.8671 98.5576L23.9053 98.5829L23.9456 98.6046C24.4033 98.8505 24.9491 98.9122 25.4608 98.736C25.9639 98.5627 26.3514 98.188 26.5631 97.7234C33.3576 83.9692 35.7516 67.9124 33.4119 51.9229C32.6401 46.3661 31.0477 40.9238 28.6975 35.8102L28.694 35.8025M29.6143 52.486L28.694 35.8025M28.694 35.8025L28.6904 35.795M28.694 35.8025L28.6904 35.795" stroke="url(#paint0_radial_1_5)" stroke-width="2"/>
<path d="M16.2178 39.1366L16.2178 39.1366C15.3963 33.3434 16.1999 27.656 16.9707 22.2706C17.0187 21.6803 17.2437 21.1164 17.6226 20.6589L17.6469 20.6296L17.6733 20.6022C18.1672 20.0908 18.8149 19.8856 19.48 19.9375C20.1094 19.9866 20.7282 20.2597 21.2962 20.6415L21.3054 20.6476L21.3053 20.6477C25.6205 23.6173 31.1125 27.8529 34.305 33.778C37.0945 38.9539 38.2532 46.734 34.2181 52.4477L16.2178 39.1366ZM16.2178 39.1366L16.2188 39.1434M16.2178 39.1366L16.2188 39.1434M16.2188 39.1434C16.4588 40.7571 16.8437 42.3475 17.3683 43.8941C18.6832 48.1038 21.3972 51.7351 25.0354 54.1416L25.0943 54.1806L25.1581 54.2109C25.5028 54.3746 25.8993 54.4066 26.2704 54.291C26.6416 54.1755 26.9503 53.9239 27.141 53.5923C27.3311 53.2619 27.3905 52.8766 27.3185 52.5102C27.2464 52.144 27.0462 51.8122 26.7504 51.5784L26.7098 51.5464L26.6662 51.5187C22.9229 49.1436 20.2019 44.5227 19.316 38.7454C18.5687 33.7236 19.2323 28.6094 19.9574 23.5045M16.2188 39.1434L19.9574 23.5045M19.9574 23.5045C24.2681 26.4671 28.8611 30.1641 31.6014 35.2407C34.013 39.7241 34.8536 46.1589 31.7073 50.6212C31.5887 50.7846 31.5044 50.9688 31.4574 51.1626C31.4094 51.3609 31.4011 51.5658 31.4316 51.7657C31.4622 51.9655 31.5311 52.1577 31.6347 52.3314C31.7368 52.5026 31.8712 52.6537 32.0315 52.7752C32.1909 52.8977 32.3737 52.9891 32.5704 53.0423L19.9574 23.5045ZM19.2119 22.1431L19.8153 22.7182L19.2119 22.1431ZM19.2732 23.085C19.2704 23.0844 19.2689 23.084 19.2689 23.0839C19.2688 23.0839 19.2703 23.0842 19.2732 23.085ZM33.769 52.8699C33.9464 52.7607 34.0986 52.617 34.2175 52.4485L32.5705 53.0424C32.7701 53.0964 32.9795 53.1098 33.1861 53.0804C33.3928 53.0509 33.5911 52.9793 33.769 52.8699Z" stroke="url(#paint1_radial_1_5)" stroke-width="2"/>
<path d="M23.1172 97.6962L23.1148 97.6889C22.9981 97.3323 23.0022 96.9458 23.129 96.5908C23.2549 96.238 23.4953 95.9358 23.8146 95.7347C47.5782 80.4614 64.2988 56.2053 70.3027 28.2852C70.3364 28.073 70.4102 27.8686 70.5211 27.6832L71.3793 28.1965L70.5211 27.6832C70.641 27.4828 70.8015 27.3092 70.9931 27.174C71.1848 27.0388 71.4027 26.9454 71.6331 26.9001C71.8633 26.8548 72.1001 26.8587 72.3282 26.9107M23.1172 97.6962L72.3282 26.9107M23.1172 97.6962L23.1197 97.7034M23.1172 97.6962L23.1197 97.7034M72.3282 26.9107C72.5562 26.9628 72.7701 27.0618 72.9569 27.2004C73.1437 27.3391 73.2995 27.5145 73.4152 27.7153M72.3282 26.9107L73.4152 27.7153M73.4152 27.7153C73.531 27.9161 73.6045 28.1385 73.6311 28.3687C73.6559 28.5822 73.6399 28.7987 73.5837 29.0066C67.4043 57.8192 50.1527 82.8632 25.6148 98.6291C25.4284 98.7512 25.2195 98.8345 25.0002 98.874C24.7781 98.914 24.5505 98.908 24.3313 98.8572C24.3313 98.8572 24.3313 98.8571 24.3312 98.8571L73.4152 27.7153ZM23.1197 97.7034L23.187 97.8991L23.2217 97.9998L23.2768 98.0909C23.3922 98.2817 23.5445 98.4481 23.7253 98.5799L23.7253 98.5799L23.1197 97.7034Z" stroke="url(#paint2_radial_1_5)" stroke-width="2"/>
<path d="M41.1298 69.855L41.1231 69.8359C41.0387 69.5952 41.0151 69.3359 41.0567 69.0821C43.0215 56.2916 47.6241 44.1338 54.5605 33.4188C61.4982 22.7019 70.6112 13.6745 81.2939 6.93972L81.3082 6.93072L81.3228 6.9222C81.5264 6.80324 81.7543 6.73263 81.9894 6.71552C82.2179 6.69889 82.4456 6.73335 82.6569 6.81406C82.8926 6.90044 83.1003 7.04459 83.2632 7.22996M41.1298 69.855L83.2632 7.22996M41.1298 69.855L41.1373 69.8738M41.1298 69.855L41.1373 69.8738M83.2632 7.22996C83.4203 7.40867 83.5323 7.62169 83.5911 7.85072C85.2025 13.2038 84.6627 18.9536 84.2061 23.8178L84.197 23.9153C83.4218 32.257 82.5992 41.0338 79.6559 49.1997L79.655 49.2022C75.231 61.3751 66.076 71.9631 53.8298 78.9091C53.6487 79.0118 53.4488 79.0764 53.242 79.0992C53.0354 79.1219 52.8273 79.1023 52.63 79.0429L52.9181 78.0853L52.63 79.0429C52.2323 78.9233 51.9043 78.651 51.7085 78.2957C51.5129 77.9408 51.4589 77.5212 51.5639 77.1255L52.5304 77.3819L51.5639 77.1255C51.6691 76.7288 51.9278 76.3833 52.2937 76.1753M83.2632 7.22996L43.0609 69.6118M52.2937 76.1753C52.2941 76.1751 52.2945 76.1749 52.2948 76.1747L52.7882 77.0445L52.2926 76.1759C52.293 76.1757 52.2933 76.1755 52.2937 76.1753ZM52.2937 76.1753C63.9317 69.5349 72.6013 59.544 76.7477 48.093C79.5482 40.3515 80.3487 31.9068 81.1295 23.5909C81.518 19.4186 81.9306 14.9428 81.1364 10.749C71.509 17.1714 63.2823 25.5637 56.9577 35.4255C50.3717 45.6947 45.9963 57.3265 44.1197 69.5619C44.0905 69.7581 44.0237 69.9484 43.9213 70.1213M43.9213 70.1213L43.0609 69.6118M43.9213 70.1213C43.9213 70.1213 43.9213 70.1213 43.9214 70.1213L43.0609 69.6118M43.9213 70.1213C43.8168 70.2979 43.6773 70.4527 43.5098 70.5751C43.3424 70.6976 43.1513 70.7845 42.9481 70.8301C42.7571 70.873 42.5607 70.8781 42.3695 70.8465M43.0609 69.6118C43.0245 69.6732 42.9765 69.7263 42.9195 69.7679C42.8626 69.8096 42.7979 69.839 42.7292 69.8544C42.6606 69.8698 42.5893 69.8709 42.5196 69.8576M42.3695 70.8465C42.3816 70.8482 42.3937 70.8498 42.4058 70.8511L42.5196 69.8576M42.3695 70.8465C42.0983 70.8089 41.8445 70.6997 41.6319 70.534L42.2465 69.7452M42.3695 70.8465C42.3573 70.8445 42.3452 70.8424 42.3331 70.8401L42.5196 69.8576M42.5196 69.8576L42.2465 69.7452M42.2465 69.7452L41.6318 70.534C41.41 70.3612 41.24 70.1325 41.1373 69.8738M42.2465 69.7452L41.1373 69.8738" stroke="url(#paint3_radial_1_5)" stroke-width="2"/>
<path d="M26.5316 99.2442L26.529 99.0852C26.5198 98.5173 26.8518 98.0901 27.1357 97.8425C27.4417 97.5758 27.8253 97.3909 28.2091 97.2961L28.2167 97.2943L28.2167 97.2943C45.8392 93.0857 63.4376 90.5237 80.4207 89.6968C82.7312 89.5454 84.9775 89.5624 87.1203 89.7495L87.1412 89.7513L87.162 89.754C87.5453 89.8038 88.0872 89.9954 88.368 90.5377C88.6711 91.1229 88.464 91.7003 88.2111 92.0473C88.0802 92.2275 87.9202 92.3762 87.7551 92.4954L87.7551 92.4954C87.5882 92.6159 87.4052 92.7142 87.2171 92.7896C87.0287 92.865 86.8294 92.9197 86.6277 92.9496C86.6277 92.9496 86.6277 92.9496 86.6277 92.9496L26.5316 99.2442ZM26.5316 99.2442L26.5834 99.3946L26.6128 99.4801L26.5316 99.2442Z" stroke="url(#paint4_radial_1_5)" stroke-width="2"/>
<path d="M64.3919 94.9212L64.4675 93.924C64.2609 93.9084 64.0528 93.9348 63.8558 94.0026C63.6589 94.0704 63.4786 94.1777 63.3255 94.3173C63.1752 94.4542 63.0548 94.6187 62.9695 94.8002C62.88 94.9866 62.8294 95.188 62.8191 95.3922C62.8191 95.3922 62.8191 95.3921 62.8191 95.3921L64.3919 94.9212ZM64.3919 94.9212L64.4675 93.924C64.6741 93.9397 64.8739 93.997 65.0557 94.0906L65.0565 94.091C70.5178 96.9082 76.6236 98.0304 82.6167 97.3244C88.3668 96.647 93.7752 94.3147 98.2271 90.6003C97.2246 89.8537 96.162 89.1982 95.0515 88.6414L95.0397 88.6355L95.0281 88.6292C88.8956 85.3491 83.8865 83.7046 79.2407 83.3585C73.3506 82.9247 68.0689 84.7419 64.7125 88.2145C64.5879 88.3642 64.4353 88.4896 64.2619 88.5829C64.0655 88.6885 63.8487 88.7496 63.6263 88.7621C63.404 88.7746 63.1833 88.7383 62.9787 88.6578L62.9787 88.6578C62.7742 88.5774 62.5906 88.4549 62.4385 88.3003C62.2865 88.1457 62.1687 87.9618 62.0914 87.7608L62.0914 87.7607C62.0142 87.5597 61.9786 87.3443 61.9878 87.1282L61.9878 87.1282C61.997 86.912 62.0509 86.6984 62.1481 86.502L62.1481 86.502C62.2343 86.3279 62.3529 86.1707 62.4988 86.0397C66.5806 81.8254 72.7786 79.7596 79.4606 80.2497L64.3919 94.9212ZM101.479 89.4612C101.671 89.8159 101.78 90.2102 101.798 90.6133L101.801 90.6921L101.792 90.7705C101.753 91.1126 101.645 91.4441 101.474 91.7438C101.31 92.0295 101.092 92.2803 100.83 92.4807C95.8108 96.8707 89.6165 99.6256 83.0135 100.403C76.4026 101.18 69.6781 99.9409 63.6733 96.8436L79.4612 80.2498C84.6384 80.6268 90.0522 82.4442 96.4631 85.8684C97.9665 86.6184 99.3908 87.5286 100.712 88.5833C101.03 88.815 101.292 89.1157 101.479 89.4612ZM101.479 89.4612L100.599 89.9372L101.479 89.4612Z" stroke="url(#paint5_radial_1_5)" stroke-width="2"/>
<defs>
<radialGradient id="paint0_radial_1_5" cx="0" cy="0" r="1" gradientUnits="userSpaceOnUse" gradientTransform="translate(26.0315 66.6789) rotate(160.999) scale(11.8542 29.1246)">
<stop stop-color="#2DBEA2"/>
<stop offset="1" stop-color="#EAA4DF"/>
</radialGradient>
<radialGradient id="paint1_radial_1_5" cx="0" cy="0" r="1" gradientUnits="userSpaceOnUse" gradientTransform="translate(25.2699 36.7834) rotate(160.999) scale(8.79416 17.0138)">
<stop stop-color="#2DBEA2"/>
<stop offset="1" stop-color="#EAA4DF"/>
</radialGradient>
<radialGradient id="paint2_radial_1_5" cx="0" cy="0" r="1" gradientUnits="userSpaceOnUse" gradientTransform="translate(48.3426 62.8801) rotate(160.999) scale(34.1865 25.4523)">
<stop stop-color="#2DBEA2"/>
<stop offset="1" stop-color="#EAA4DF"/>
</radialGradient>
<radialGradient id="paint3_radial_1_5" cx="0" cy="0" r="1" gradientUnits="userSpaceOnUse" gradientTransform="translate(64.1657 44.088) rotate(160.999) scale(29.1701 28.5846)">
<stop stop-color="#2DBEA2"/>
<stop offset="1" stop-color="#EAA4DF"/>
</radialGradient>
<radialGradient id="paint4_radial_1_5" cx="0" cy="0" r="1" gradientUnits="userSpaceOnUse" gradientTransform="translate(57.5299 95.1019) rotate(160.999) scale(29.6581 6.48249)">
<stop stop-color="#2DBEA2"/>
<stop offset="1" stop-color="#EAA4DF"/>
</radialGradient>
<radialGradient id="paint5_radial_1_5" cx="0" cy="0" r="1" gradientUnits="userSpaceOnUse" gradientTransform="translate(81.1646 89.6866) rotate(160.999) scale(18.3166 10.4872)">
<stop stop-color="#2DBEA2"/>
<stop offset="1" stop-color="#EAA4DF"/>
</radialGradient>
</defs>
</svg>
